<svg xmlns="http://www.w3.org/2000/svg" width="1600" height="1000" viewBox="0 0 1600 1000">
  <defs>
    <linearGradient id="bg" x1="0" x2="1" y1="0" y2="1">
      <stop offset="0%" stop-color="#071421"/>
      <stop offset="100%" stop-color="#0f2235"/>
    </linearGradient>
    <linearGradient id="accent" x1="0" x2="1" y1="0" y2="1">
      <stop offset="0%" stop-color="#52d6ff"/>
      <stop offset="100%" stop-color="#36e3c5"/>
    </linearGradient>
  </defs>
  <rect width="1600" height="1000" fill="url(#bg)"/>
  <rect x="60" y="60" width="250" height="880" rx="26" fill="#101d2b" stroke="#1b2f41"/>
  <rect x="350" y="60" width="1190" height="880" rx="28" fill="#0d1b29" stroke="#1b2f41"/>
  <circle cx="118" cy="120" r="28" fill="url(#accent)"/>
  <rect x="170" y="95" width="84" height="18" rx="9" fill="#dfefff" opacity="0.85"/>
  <rect x="170" y="128" width="104" height="14" rx="7" fill="#8aa8c6" opacity="0.8"/>
  <rect x="90" y="220" width="180" height="44" rx="12" fill="#13293a"/>
  <rect x="90" y="290" width="180" height="44" rx="12" fill="#13293a"/>
  <rect x="90" y="360" width="180" height="44" rx="12" fill="#13293a"/>
  <rect x="90" y="430" width="180" height="44" rx="12" fill="#13293a"/>
  <rect x="90" y="720" width="180" height="120" rx="18" fill="#13293a"/>
  <rect x="390" y="100" width="180" height="106" rx="18" fill="#112b3d" stroke="#1d3d57"/>
  <rect x="600" y="100" width="180" height="106" rx="18" fill="#112b3d" stroke="#1d3d57"/>
  <rect x="810" y="100" width="180" height="106" rx="18" fill="#112b3d" stroke="#1d3d57"/>
  <rect x="1020" y="100" width="180" height="106" rx="18" fill="#112b3d" stroke="#1d3d57"/>
  <rect x="390" y="250" width="540" height="260" rx="22" fill="#112b3d" stroke="#1d3d57"/>
  <rect x="970" y="250" width="520" height="260" rx="22" fill="#112b3d" stroke="#1d3d57"/>
  <rect x="390" y="545" width="560" height="260" rx="22" fill="#112b3d" stroke="#1d3d57"/>
  <rect x="980" y="545" width="510" height="260" rx="22" fill="#112b3d" stroke="#1d3d57"/>

  <path d="M430 440 C500 320, 585 330, 650 390 S760 490, 820 410 S930 310, 960 420" fill="none" stroke="#52d6ff" stroke-width="4" stroke-linecap="round"/>
  <path d="M1000 430 L1040 390 L1080 430 L1120 350 L1160 420 L1200 380 L1240 470" fill="none" stroke="#36e3c5" stroke-width="4" stroke-linecap="round"/>
  <g opacity="0.8">
    <rect x="450" y="630" width="30" height="110" rx="10" fill="#52d6ff"/>
    <rect x="500" y="595" width="30" height="145" rx="10" fill="#36e3c5"/>
    <rect x="550" y="680" width="30" height="60" rx="10" fill="#52d6ff"/>
    <rect x="600" y="560" width="30" height="180" rx="10" fill="#36e3c5"/>
    <rect x="650" y="610" width="30" height="130" rx="10" fill="#52d6ff"/>
    <rect x="700" y="520" width="30" height="220" rx="10" fill="#36e3c5"/>
  </g>
  <g fill="#dfefff" font-family="Arial, sans-serif">
    <text x="420" y="160" font-size="24">Live devices</text>
    <text x="630" y="160" font-size="24">Energy usage</text>
    <text x="840" y="160" font-size="24">Water flow</text>
    <text x="1050" y="160" font-size="24">Alerts</text>
    <text x="1070" y="760" font-size="20" fill="#a8bfd9">Battery low on Door Sensor</text>
    <text x="1070" y="795" font-size="20" fill="#a8bfd9">Motion detected at 3:42 PM</text>
    <text x="1070" y="830" font-size="20" fill="#a8bfd9">Water leak warning</text>
  </g>
</svg>
